<svg xmlns="http://www.w3.org/2000/svg" viewBox="0 0 53.57 9.97"><defs><style>.cls-1{fill:#1d1d1b;}</style></defs><g id="Слой_2" ><g><path class="cls-1" d="M14.23,1.45l-2.69,8.4h-3L7.15,5.36,5.72,9.85h-3L0,1.45H2.92L4.38,6.23,5.93,1.45h2.6L10,6.29l1.54-4.84Z"/><path class="cls-1" d="M15.19,2.37a1.25,1.25,0,0,1-.45-1,1.25,1.25,0,0,1,.45-1A1.73,1.73,0,0,1,16.37,0a1.8,1.8,0,0,1,1.19.37,1.21,1.21,0,0,1,.44,1,1.34,1.34,0,0,1-.44,1,1.71,1.71,0,0,1-1.19.4A1.73,1.73,0,0,1,15.19,2.37ZM15,3.29h2.71V9.85H15Z"/><path class="cls-1" d="M19.84,9.79a4.38,4.38,0,0,1-1.32-.47l.74-1.78A4.12,4.12,0,0,0,20.34,8a5.2,5.2,0,0,0,1.21.15,2.07,2.07,0,0,0,.66-.07c.12-.06.18-.13.18-.24s-.08-.17-.23-.21a6.44,6.44,0,0,0-.76-.12A10.7,10.7,0,0,1,20,7.23a2.09,2.09,0,0,1-1-.58,1.67,1.67,0,0,1-.43-1.24A1.83,1.83,0,0,1,19,4.27a2.56,2.56,0,0,1,1.14-.8A5,5,0,0,1,22,3.17a7.09,7.09,0,0,1,1.46.14,4.26,4.26,0,0,1,1.22.4L23.9,5.5A3.79,3.79,0,0,0,22,5c-.59,0-.89.1-.89.31s.08.18.24.22a6,6,0,0,0,.76.13,8.12,8.12,0,0,1,1.36.25,2.12,2.12,0,0,1,1,.59,1.65,1.65,0,0,1,.43,1.23,1.8,1.8,0,0,1-.39,1.12,2.6,2.6,0,0,1-1.15.8,5.11,5.11,0,0,1-1.86.3A7.58,7.58,0,0,1,19.84,9.79Z"/><path class="cls-1" d="M32.21,3.9A3,3,0,0,1,33,6.11V9.85H30.24V6.58c0-.76-.27-1.13-.8-1.13a.91.91,0,0,0-.74.32,1.46,1.46,0,0,0-.28,1V9.85H25.7V1h2.72V3.82a2.69,2.69,0,0,1,1.84-.65A2.63,2.63,0,0,1,32.21,3.9Z"/><path class="cls-1" d="M34.13,1h2.71v8.9H34.13Z"/><path class="cls-1" d="M38.21,2.37a1.25,1.25,0,0,1-.45-1,1.25,1.25,0,0,1,.45-1,2,2,0,0,1,2.37,0,1.19,1.19,0,0,1,.45,1,1.32,1.32,0,0,1-.45,1,1.67,1.67,0,0,1-1.18.4A1.76,1.76,0,0,1,38.21,2.37ZM38,3.29h2.71V9.85H38Z"/><path class="cls-1" d="M42.86,9.79a4.59,4.59,0,0,1-1.32-.47l.75-1.78A4.12,4.12,0,0,0,43.37,8a5.14,5.14,0,0,0,1.21.15,2,2,0,0,0,.65-.07c.13-.06.19-.13.19-.24s-.08-.17-.23-.21a6.7,6.7,0,0,0-.77-.12,10.84,10.84,0,0,1-1.36-.25,2.17,2.17,0,0,1-1-.58,1.71,1.71,0,0,1-.42-1.24A1.88,1.88,0,0,1,42,4.27a2.66,2.66,0,0,1,1.15-.8A5,5,0,0,1,45,3.17a7.09,7.09,0,0,1,1.46.14,4.37,4.37,0,0,1,1.22.4L46.93,5.5A3.85,3.85,0,0,0,45,5c-.6,0-.89.1-.89.31s.08.18.24.22a6.1,6.1,0,0,0,.75.13,7.93,7.93,0,0,1,1.36.25,2.11,2.11,0,0,1,1,.59,1.69,1.69,0,0,1,.43,1.23,1.8,1.8,0,0,1-.39,1.12,2.66,2.66,0,0,1-1.15.8,5.11,5.11,0,0,1-1.86.3A7.74,7.74,0,0,1,42.86,9.79Z"/><path class="cls-1" d="M53.57,9.62A3.32,3.32,0,0,1,51.9,10a3.12,3.12,0,0,1-2.13-.66,2.57,2.57,0,0,1-.74-2V5.63h-.9v-2H49V1.81h2.71V3.65h1.35v2H51.74V7.28a.64.64,0,0,0,.16.47.53.53,0,0,0,.41.17,1.07,1.07,0,0,0,.61-.18Z"/></g></g></svg>
